<svg width="1200" height="630" viewBox="0 0 1200 630" fill="none" xmlns="http://www.w3.org/2000/svg">
  <defs>
    <linearGradient id="bg" x1="80" y1="40" x2="1120" y2="590" gradientUnits="userSpaceOnUse">
      <stop stop-color="#07110C" />
      <stop offset="1" stop-color="#132118" />
    </linearGradient>
    <linearGradient id="panel" x1="190" y1="120" x2="1010" y2="520" gradientUnits="userSpaceOnUse">
      <stop stop-color="#132118" stop-opacity="0.96" />
      <stop offset="1" stop-color="#0C1510" stop-opacity="0.98" />
    </linearGradient>
    <radialGradient id="glowLeft" cx="0" cy="0" r="1" gradientUnits="userSpaceOnUse" gradientTransform="translate(240 120) rotate(47.6048) scale(346.975 420.878)">
      <stop stop-color="#7BF4C7" stop-opacity="0.22" />
      <stop offset="1" stop-color="#7BF4C7" stop-opacity="0" />
    </radialGradient>
    <radialGradient id="glowRight" cx="0" cy="0" r="1" gradientUnits="userSpaceOnUse" gradientTransform="translate(940 100) rotate(122.143) scale(295.515 360.721)">
      <stop stop-color="#FFD970" stop-opacity="0.18" />
      <stop offset="1" stop-color="#FFD970" stop-opacity="0" />
    </radialGradient>
  </defs>

  <rect width="1200" height="630" rx="36" fill="url(#bg)" />
  <rect width="1200" height="630" rx="36" fill="url(#glowLeft)" />
  <rect width="1200" height="630" rx="36" fill="url(#glowRight)" />

  <rect x="138" y="88" width="924" height="454" rx="28" fill="url(#panel)" stroke="#294034" stroke-width="2" />
  <rect x="138" y="88" width="924" height="74" rx="28" fill="#0E1B14" />
  <path d="M138 134C138 118.536 150.536 106 166 106H1034C1049.46 106 1062 118.536 1062 134V162H138V134Z" fill="#122119" />

  <circle cx="186" cy="125" r="10" fill="#FF6B5D" />
  <circle cx="216" cy="125" r="10" fill="#F0BD4F" />
  <circle cx="246" cy="125" r="10" fill="#67C354" />

  <text x="600" y="132" text-anchor="middle" fill="#90A691" font-family="'Azeret Mono', ui-monospace, monospace" font-size="20" letter-spacing="5">CLI GREP</text>

  <text x="198" y="228" fill="#D7ECD6" font-family="'Azeret Mono', ui-monospace, monospace" font-size="66" font-weight="700" letter-spacing="4">SEARCH CLI</text>
  <text x="198" y="296" fill="#D7ECD6" font-family="'Azeret Mono', ui-monospace, monospace" font-size="66" font-weight="700" letter-spacing="4">COMMANDS FAST</text>

  <text x="198" y="352" fill="#90A691" font-family="'IBM Plex Mono', ui-monospace, monospace" font-size="26">Terminal-style homepage with hot CLI rankings and keyboard-first discovery.</text>

  <rect x="190" y="396" width="820" height="92" rx="20" fill="#0A1410" stroke="#294034" />
  <text x="222" y="451" fill="#7BF4C7" font-family="'IBM Plex Mono', ui-monospace, monospace" font-size="30">$ grep "docker" registry</text>

  <rect x="744" y="198" width="250" height="150" rx="18" fill="#0A1410" stroke="#294034" />
  <text x="772" y="232" fill="#FFD970" font-family="'IBM Plex Mono', ui-monospace, monospace" font-size="20">[ hot cli ]</text>
  <text x="772" y="272" fill="#D7ECD6" font-family="'IBM Plex Mono', ui-monospace, monospace" font-size="21">1  ripgrep</text>
  <text x="772" y="305" fill="#D7ECD6" font-family="'IBM Plex Mono', ui-monospace, monospace" font-size="21">2  fd</text>
  <text x="772" y="338" fill="#D7ECD6" font-family="'IBM Plex Mono', ui-monospace, monospace" font-size="21">3  jq</text>
</svg>
